<svg xmlns="http://www.w3.org/2000/svg" viewBox="0 0 4244.94 888.18"><defs><style>.cls-1{fill:#fff;}</style></defs><g id="レイヤー_2" data-name="レイヤー 2"><g id="レイヤー_1-2" data-name="レイヤー 1"><path class="cls-1" d="M1596.45,490l180-352.6h124.72V784.46H1775.55V383.13L1634.9,668.22h-79.69l-138.8-282.34V784.46H1291.68V137.38h122.83Z"/><path class="cls-1" d="M2238,503.16h92.82V476c0-52.53-15.93-69.4-83.44-69.4-46,0-68.45,6.54-88.17,37.54L2074.82,385c34.7-57.27,87.22-77.84,183.79-77.84,121,0,189.43,35.64,189.43,169.71V784.46H2330.81V743.22c-18.73,31.86-46.89,49.68-101.26,49.68-97.51,0-165.07-51.58-165.07-147.24C2064.48,546.3,2139.53,503.16,2238,503.16Zm92.82,88.17h-78.74c-48.78,0-70.35,15.93-70.35,52.43,0,35.65,27.21,52.53,68.45,52.53,54.37,0,80.64-23.42,80.64-87.23Z"/><path class="cls-1" d="M2656.29,137.38h120V607.26c0,50.63,15,74,65.66,74V784.46c-126.62,0-185.69-32.8-185.69-150Z"/><path class="cls-1" d="M3420.56,784.46H3301.48V509.7c0-75-29.06-99.36-71.25-99.36-43.14,0-74.1,31.86-74.1,98.41V784.46h-120V315.62h117.24V355c17.77-24.37,51.52-47.78,104-47.78,56.27,0,102.21,21.52,131.31,62.76,30-36.5,76-62.76,135-62.76,102.21,0,162.22,61.81,162.22,183.74V784.46h-120V509.7c0-70.35-24.36-99.36-72.19-99.36-43.14,0-73.15,31.86-73.15,98.41Z"/><path class="cls-1" d="M4238.35,713.16c-32.81,57.27-87.18,79.74-171.61,79.74-140.65,0-208.16-90.92-208.16-211.9V517.19c0-141.55,71.25-210,193.18-210,132.21,0,193.18,76.89,193.18,219.39v53.47H3977.67c.94,64.66,21.56,111.59,88.12,111.59,49.73,0,65.66-15,83.48-40.29ZM3977.67,494.72h147.24c-2.85-61-27.21-86.28-72.2-86.28C4004.88,408.44,3982.36,441.25,3977.67,494.72Z"/><path class="cls-1" d="M646.51,839.55l-54.32-106c109.17-55.94,177-166.87,177-289.46V396H888.28v48.07C888.28,611.53,795.65,763.13,646.51,839.55Z"/><path class="cls-1" d="M444.14,888.18C199.24,888.18,0,689,0,444.09S199.24,0,444.14,0a443.56,443.56,0,0,1,409.2,271.16L743.65,317.62A324.63,324.63,0,0,0,444.14,119.08c-179.24,0-325.06,145.82-325.06,325s145.82,325,325.06,325A336.46,336.46,0,0,0,502.4,764l21,117.19A452.35,452.35,0,0,1,444.14,888.18Z"/><path class="cls-1" d="M921.8,747.77c-100-54.71-201.33-92.91-301.17-113.49l24-116.61C756.07,540.61,868.56,582.9,979,643.29Z"/></g></g></svg>